<svg viewBox="0 0 24 25" fill="none" xmlns="http://www.w3.org/2000/svg">
    <path
        d="M15.1167 2.08124C15.165 2.10593 15.2043 2.14576 15.228 2.19452C15.2513 2.24238 15.2581 2.29653 15.2485 2.34882L13.8706 9.23163L13.7866 9.64862L14.1851 9.79803L19.5864 11.8224V11.8234C19.6246 11.838 19.6591 11.861 19.686 11.8918C19.713 11.9227 19.7314 11.9603 19.7407 12.0002C19.75 12.0401 19.7494 12.0817 19.7388 12.1213C19.7281 12.1609 19.7082 12.1978 19.6802 12.2277L18.8911 13.0695H18.8979L9.18408 23.4777C9.14703 23.5173 9.09781 23.5436 9.04443 23.5529C8.99099 23.5622 8.9355 23.5542 8.88721 23.5295C8.83906 23.5048 8.80057 23.4648 8.77686 23.4162C8.75312 23.3674 8.745 23.3112 8.75537 23.258L10.1294 16.3869L10.2134 15.9699L9.81494 15.8205L4.4126 13.7922L4.41162 13.7912C4.37312 13.7767 4.33914 13.7528 4.31201 13.7219C4.28479 13.6908 4.26563 13.6537 4.25635 13.6135C4.24706 13.5732 4.24744 13.5312 4.2583 13.4914C4.26918 13.4516 4.28948 13.4149 4.31787 13.3849L4.3208 13.382L14.8198 2.13202L14.8208 2.133C14.8578 2.09362 14.9063 2.06716 14.9595 2.0578C15.0129 2.04848 15.0684 2.05654 15.1167 2.08124Z"
        fill="#F3654A" stroke="white" />
</svg>