<svg viewBox="0 0 64 64" fill="none" xmlns="http://www.w3.org/2000/svg">
    <rect x="1" y="1" width="62" height="62" rx="31" stroke="#374151" stroke-width="2" />
    <path
        d="M44.5 32C44.5 32.3978 44.342 32.7794 44.0607 33.0607C43.7794 33.342 43.3978 33.5 43 33.5H21C20.6022 33.5 20.2206 33.342 19.9393 33.0607C19.658 32.7794 19.5 32.3978 19.5 32C19.5 31.6022 19.658 31.2206 19.9393 30.9393C20.2206 30.658 20.6022 30.5 21 30.5H43C43.3978 30.5 43.7794 30.658 44.0607 30.9393C44.342 31.2206 44.5 31.6022 44.5 32ZM21 25.5H43C43.3978 25.5 43.7794 25.342 44.0607 25.0607C44.342 24.7794 44.5 24.3978 44.5 24C44.5 23.6022 44.342 23.2206 44.0607 22.9393C43.7794 22.658 43.3978 22.5 43 22.5H21C20.6022 22.5 20.2206 22.658 19.9393 22.9393C19.658 23.2206 19.5 23.6022 19.5 24C19.5 24.3978 19.658 24.7794 19.9393 25.0607C20.2206 25.342 20.6022 25.5 21 25.5ZM43 38.5H21C20.6022 38.5 20.2206 38.658 19.9393 38.9393C19.658 39.2206 19.5 39.6022 19.5 40C19.5 40.3978 19.658 40.7794 19.9393 41.0607C20.2206 41.342 20.6022 41.5 21 41.5H43C43.3978 41.5 43.7794 41.342 44.0607 41.0607C44.342 40.7794 44.5 40.3978 44.5 40C44.5 39.6022 44.342 39.2206 44.0607 38.9393C43.7794 38.658 43.3978 38.5 43 38.5Z"
        fill="currentColor" />
</svg>