<svg viewBox="0 0 73 73" fill="none" xmlns="http://www.w3.org/2000/svg">
<path d="M59.06 48.365V36.383C59.06 31.925 59.06 29.693 58.292 27.653C57.527 25.613 56.057 23.933 53.123 20.579L48.56 15.365H24.56L20 20.579C17.06 23.933 15.59 25.613 14.825 27.653C14.06 29.693 14.057 31.925 14.057 36.383V48.365C14.057 56.849 14.057 61.094 16.694 63.728C19.331 66.362 23.576 66.365 32.06 66.365H41.06C49.544 66.365 53.789 66.365 56.423 63.728C59.06 61.094 59.06 56.849 59.06 48.365Z" stroke="white" stroke-width="2" stroke-linecap="round" stroke-linejoin="round"/>
<path d="M29.06 47.414C29.06 51.104 34.622 54.125 39.959 52.43C45.296 50.735 44.51 45.74 42.698 43.778C40.886 41.816 38.225 42.146 35.18 41.99C28.337 41.642 27.854 35.081 33.395 32.486C37.46 30.581 42.674 33.026 43.274 36.365M36.473 28.865V31.799M36.473 53.525V55.865M23.06 6.36499H50.06C51.458 6.36499 52.157 6.36499 52.709 6.59299C53.4426 6.89812 54.0252 7.48181 54.329 8.21599C54.56 8.76799 54.56 9.46699 54.56 10.865C54.56 12.263 54.56 12.962 54.332 13.514C54.0269 14.2476 53.4432 14.8302 52.709 15.134C52.157 15.365 51.458 15.365 50.06 15.365H23.06C21.662 15.365 20.963 15.365 20.411 15.137C19.6774 14.8319 19.0948 14.2482 18.791 13.514C18.56 12.962 18.56 12.263 18.56 10.865C18.56 9.46699 18.56 8.76799 18.788 8.21599C19.0931 7.48237 19.6768 6.89976 20.411 6.59599C20.963 6.36499 21.662 6.36499 23.06 6.36499Z" stroke="white" stroke-width="2" stroke-linecap="round" stroke-linejoin="round"/>
</svg>
