<svg viewBox="0 0 49 48" fill="none" xmlns="http://www.w3.org/2000/svg">
    <path
        d="M38.5601 36.56V36.1C38.4601 35.76 38.3601 35.26 38.2201 34.64C37.9401 33.38 37.4801 31.7 36.8201 29.9C35.5601 26.46 33.7201 23.48 31.5001 22H17.6201C15.4001 23.48 13.5601 26.46 12.3001 29.9C11.6401 31.7 11.1801 33.38 10.9001 34.64C10.7601 35.26 10.6601 35.76 10.5601 36.1V36.58L10.5001 36.78L10.4601 36.9C10.4401 37 10.4401 37.1 10.4401 37.26C10.4401 37.58 10.5001 37.92 10.6401 38.22C10.7401 38.42 11.5601 40 16.5601 40H32.5601C37.5601 40 38.3801 38.42 38.4801 38.22C38.6201 37.92 38.6801 37.58 38.6801 37.26C38.6801 37.1 38.6801 37 38.6601 36.9L38.6201 36.78L38.5601 36.58V36.56ZM6.56006 36C6.56006 36 8.56006 22 16.5601 18H32.5601C40.5601 22 42.5601 36 42.5601 36C42.5601 36 44.5601 44 32.5601 44H16.5601C4.56006 44 6.56006 36 6.56006 36ZM20.5601 8L24.5601 4L28.5601 8L36.5601 4L32.5601 14H16.5601L12.5601 4L20.5601 8Z"
        fill="white" />
    <path d="M19.0601 36.5L30.0601 25.5" stroke="white" stroke-width="2" stroke-linecap="round"
        stroke-linejoin="round" />
    <path
        d="M29.1434 37.4167C30.1559 37.4167 30.9767 36.5959 30.9767 35.5833C30.9767 34.5708 30.1559 33.75 29.1434 33.75C28.1309 33.75 27.3101 34.5708 27.3101 35.5833C27.3101 36.5959 28.1309 37.4167 29.1434 37.4167Z"
        fill="white" stroke="white" stroke-width="2" stroke-linecap="round" stroke-linejoin="round" />
    <path
        d="M19.9768 28.25C20.9893 28.25 21.8101 27.4292 21.8101 26.4167C21.8101 25.4042 20.9893 24.5834 19.9768 24.5834C18.9642 24.5834 18.1434 25.4042 18.1434 26.4167C18.1434 27.4292 18.9642 28.25 19.9768 28.25Z"
        fill="white" stroke="white" stroke-width="2" stroke-linecap="round" stroke-linejoin="round" />
</svg>