<svg width="483" height="481" viewBox="0 0 483 481" fill="none" xmlns="http://www.w3.org/2000/svg">
    <g clip-path="url(#clip0_44_469)">
        <path
            d="M184.29 6.75012C209.65 1.64012 235.27 -1.43996 261.12 0.670044C313.4 4.95006 359.81 23.9004 399.21 58.7404C439.71 94.5503 465.06 139.6 477.46 191.93C482.46 213.05 484.66 234.7 481.21 256.28C475.75 290.43 455.5 312.29 422.73 322.61C416.43 324.59 409.78 325.43 403.31 326.88C399.83 327.66 397.99 326.259 396.23 323.19C376.77 289.34 357.15 255.58 337.57 221.81C305.4 166.32 273.59 110.62 240.9 55.4503C227.17 32.2703 205.45 19.1303 179.35 13.1603C176.7 12.5503 174.01 12.1102 171.33 11.5802C171.29 11.1402 171.25 10.6796 171.2 10.2296C175.56 9.05963 179.87 7.6401 184.29 6.75012Z"
            fill="#FE6BBA" />
        <path
            d="M76.52 417.44C69.93 410.04 63.46 403.21 57.48 395.99C32.26 365.58 14.29 331.53 5.77998 292.73C-5.48002 241.33 -0.310019 191.49 21.56 143.83C43.08 96.9301 74.77 58.4301 120.27 32.6201C160.34 9.89012 201.55 17.7001 231.12 53.1401C237.74 61.0801 237.71 61.0601 232.62 69.9201C181.82 158.2 130.67 246.28 80.47 334.9C66.87 358.91 67.11 385.17 75.88 411.24C76.35 412.64 76.86 414.04 77.28 415.46C77.36 415.69 77.08 416.04 76.52 417.44Z"
            fill="#FEA6D6" />
        <path
            d="M474.85 295.69C475.22 295.88 475.62 296.06 476.01 296.24C473.35 304.33 470.9 312.49 468.01 320.49C455.03 356.36 435.809 388.33 408.03 414.77C373.9 447.249 333.79 468.05 287.3 476.63C268.2 480.16 249.02 481.39 229.72 480.4C188.55 478.31 149.56 468.46 114.84 445.42C94.5201 431.93 81.3203 413.12 78.2903 388.5C76.1203 370.86 79.4902 353.78 86.4202 337.38C87.8002 334.12 90.2305 334.26 92.9504 334.26C120.76 334.26 148.57 334.22 176.38 334.2C226.67 334.15 276.96 334.13 327.25 334.06C350.89 334.03 374.54 334.13 398.18 333.79C428.01 333.37 452.45 321.22 471.95 298.82C472.88 297.75 473.88 296.73 474.85 295.69Z"
            fill="#FE89C8" />
    </g>
    <defs>
        <clipPath id="clip0_44_469">
            <rect width="482.88" height="480.73" fill="white" />
        </clipPath>
    </defs>
</svg>