<svg viewBox="0 0 37 28" fill="none" xmlns="http://www.w3.org/2000/svg">
    <path
        d="M17.0257 20.6416C17.0257 22.6803 16.2331 24.4323 14.6478 25.8976C13.126 27.2992 11.1919 28 8.84576 28C6.11911 28 3.96315 27.0444 2.37789 25.1331C0.792631 23.2218 0 20.9602 0 18.3481C0 12.4232 1.61697 7.96359 4.8509 4.96928C8.08483 1.97497 11.6675 0.318543 15.599 0V6.49829C13.6967 6.68942 11.8895 7.45392 10.1774 8.79181C8.52871 10.1297 7.64096 11.818 7.51414 13.8567C8.14824 13.5381 8.84576 13.3788 9.60668 13.3788C11.9529 13.3788 13.7601 14.0478 15.0283 15.3857C16.3599 16.7235 17.0257 18.4755 17.0257 20.6416ZM37 20.6416C37 22.6803 36.2074 24.4323 34.6221 25.8976C33.1003 27.2992 31.1662 28 28.8201 28C26.0934 28 23.9374 27.0444 22.3522 25.1331C20.8303 23.2218 20.0694 20.9602 20.0694 18.3481C20.0694 12.4232 21.6547 7.96359 24.8252 4.96928C28.0591 1.97497 31.6418 0.318543 35.5733 0V6.49829C33.671 6.68942 31.8638 7.45392 30.1517 8.79181C28.503 10.1297 27.6153 11.818 27.4884 13.8567C28.1225 13.5381 28.8201 13.3788 29.581 13.3788C31.9272 13.3788 33.7344 14.0478 35.0026 15.3857C36.3342 16.7235 37 18.4755 37 20.6416Z"
        fill="currentColor" />
</svg>