<svg  viewBox="0 0 49 48" fill="none" xmlns="http://www.w3.org/2000/svg">
<path d="M30.56 15C29.7643 15 29.0013 14.684 28.4386 14.1213C27.876 13.5587 27.56 12.7957 27.56 12C27.56 11.2044 27.876 10.4413 28.4386 9.87871C29.0013 9.3161 29.7643 9.00003 30.56 9.00003C31.3556 9.00003 32.1187 9.3161 32.6813 9.87871C33.2439 10.4413 33.56 11.2044 33.56 12C33.56 12.7957 33.2439 13.5587 32.6813 14.1213C32.1187 14.684 31.3556 15 30.56 15ZM5.32097 27.408C4.76313 26.8532 4.32044 26.1937 4.01837 25.4672C3.7163 24.7408 3.56079 23.9618 3.56079 23.175C3.56079 22.3883 3.7163 21.6093 4.01837 20.8828C4.32044 20.1564 4.76313 19.4968 5.32097 18.942L19.541 4.79403C20.664 3.67386 22.1848 3.04395 23.771 3.04203L33.518 3.00003C34.312 2.99446 35.0992 3.14654 35.8339 3.44745C36.5687 3.74837 37.2365 4.19213 37.7985 4.75302C38.3605 5.31391 38.8056 5.98077 39.1079 6.71495C39.4103 7.44913 39.564 8.23603 39.56 9.03003L39.503 16.77C38.5433 16.2852 37.5385 15.8954 36.503 15.606L36.554 9.00603C36.5556 8.60928 36.4784 8.21615 36.3271 7.84941C36.1757 7.48267 35.9531 7.1496 35.6721 6.86947C35.3912 6.58934 35.0574 6.36773 34.6903 6.21746C34.3231 6.06719 33.9297 5.99125 33.533 5.99403L23.783 6.03303C22.9899 6.03399 22.2295 6.34895 21.668 6.90903L7.44797 21.06C7.16914 21.3372 6.94786 21.6667 6.79686 22.0297C6.64587 22.3926 6.56813 22.7819 6.56813 23.175C6.56813 23.5682 6.64587 23.9574 6.79686 24.3204C6.94786 24.6834 7.16914 25.0129 7.44797 25.29L15.677 33.48C15.89 35.268 16.391 36.969 17.129 38.532C16.4118 38.2324 15.7598 37.7963 15.209 37.248L5.32097 27.408ZM45.56 31.5C45.56 33.2729 45.2108 35.0284 44.5323 36.6663C43.8539 38.3041 42.8595 39.7924 41.6059 41.046C40.3523 42.2996 38.8641 43.294 37.2262 43.9724C35.5883 44.6508 33.8328 45 32.06 45C30.2871 45 28.5316 44.6508 26.8937 43.9724C25.2558 43.294 23.7676 42.2996 22.514 41.046C21.2604 39.7924 20.266 38.3041 19.5876 36.6663C18.9092 35.0284 18.56 33.2729 18.56 31.5C18.56 27.9196 19.9823 24.4858 22.514 21.9541C25.0458 19.4223 28.4795 18 32.06 18C35.6404 18 39.0742 19.4223 41.6059 21.9541C44.1376 24.4858 45.56 27.9196 45.56 31.5ZM23.06 27C23.06 27.7957 23.376 28.5587 23.9386 29.1213C24.5013 29.684 25.2643 30 26.06 30C26.8556 30 27.6187 29.684 28.1813 29.1213C28.7439 28.5587 29.06 27.7957 29.06 27C29.06 26.2044 28.7439 25.4413 28.1813 24.8787C27.6187 24.3161 26.8556 24 26.06 24C25.2643 24 24.5013 24.3161 23.9386 24.8787C23.376 25.4413 23.06 26.2044 23.06 27ZM39.104 24.441C38.8227 24.1598 38.4412 24.0018 38.0435 24.0018C37.6457 24.0018 37.2643 24.1598 36.983 24.441L24.995 36.429C24.7217 36.7119 24.5705 37.0908 24.574 37.4841C24.5774 37.8774 24.7351 38.2536 25.0132 38.5318C25.2914 38.8099 25.6676 38.9676 26.0609 38.971C26.4542 38.9745 26.8331 38.8233 27.116 38.55L39.104 26.562C39.3852 26.2807 39.5431 25.8993 39.5431 25.5015C39.5431 25.1038 39.3852 24.7223 39.104 24.441ZM38.06 33C37.2643 33 36.5013 33.3161 35.9386 33.8787C35.376 34.4413 35.06 35.2044 35.06 36C35.06 36.7957 35.376 37.5587 35.9386 38.1213C36.5013 38.684 37.2643 39 38.06 39C38.8556 39 39.6187 38.684 40.1813 38.1213C40.7439 37.5587 41.06 36.7957 41.06 36C41.06 35.2044 40.7439 34.4413 40.1813 33.8787C39.6187 33.3161 38.8556 33 38.06 33Z" fill="white"/>
</svg>
