<svg viewBox="0 0 73 73" fill="none" xmlns="http://www.w3.org/2000/svg">
<g clip-path="url(#clip0_18814_73)">
<mask id="path-1-inside-1_18814_73" fill="white">
<path d="M56.8593 50.9039C56.5474 50.7715 56.2534 50.6481 55.9751 50.5224L54.7274 49.9569L52.1489 48.7899V16.7617C52.1489 12.5954 50.4939 8.59977 47.5479 5.65377C44.6019 2.70778 40.6062 1.05273 36.44 1.05273C32.2737 1.05273 28.2781 2.70778 25.3321 5.65377C22.3861 8.59977 20.731 12.5954 20.731 16.7617V48.7944C19.784 49.2163 18.8909 49.6225 18.1503 49.9591L16.9048 50.5269C16.6288 50.6503 16.3325 50.7737 16.0206 50.9061C13.4286 51.9923 9.51038 53.6395 9.51038 58.2781V71.7429C9.51038 71.8903 9.5394 72.0362 9.59579 72.1723C9.65218 72.3085 9.73483 72.4322 9.83902 72.5363C9.94322 72.6405 10.0669 72.7232 10.203 72.7796C10.3392 72.836 10.4851 72.865 10.6324 72.865H62.2475C62.5451 72.865 62.8305 72.7468 63.0409 72.5363C63.2513 72.3259 63.3696 72.0405 63.3696 71.7429V58.2781C63.3696 53.6373 59.4513 51.9901 56.8593 50.9017V50.9039ZM22.9752 16.7594C22.9752 14.9912 23.3235 13.2403 24.0001 11.6067C24.6768 9.97304 25.6686 8.48869 26.9189 7.23837C28.1692 5.98805 29.6536 4.99624 31.2872 4.31957C32.9208 3.6429 34.6717 3.29462 36.44 3.29462C38.2082 3.29462 39.9591 3.6429 41.5927 4.31957C43.2263 4.99624 44.7107 5.98805 45.961 7.23837C47.2113 8.48869 48.2031 9.97304 48.8798 11.6067C49.5565 13.2403 49.9048 14.9912 49.9048 16.7594V47.807C48.5765 47.2308 47.2372 46.6801 45.8878 46.1553C45.8608 46.1419 45.8429 46.1194 45.8182 46.1104C45.0747 45.9242 44.4122 45.5004 43.9314 44.9033C43.4507 44.3063 43.1778 43.5687 43.1544 42.8026L43.1589 37.1923C43.1517 37.1176 43.1367 37.0439 43.114 36.9723C44.5194 35.9369 45.6627 34.5866 46.4522 33.0297C47.2418 31.4728 47.6556 29.7526 47.6606 28.007V15.6441C47.6606 15.3465 47.5424 15.0611 47.332 14.8507C47.1216 14.6402 46.8362 14.522 46.5386 14.522C46.5229 14.522 46.5094 14.531 46.4937 14.531H43.5808L41.9067 12.6616C41.808 12.5506 41.688 12.4604 41.5539 12.3964C41.4198 12.3324 41.2742 12.2959 41.1257 12.2891C40.9764 12.2736 40.8255 12.2922 40.6843 12.3435C40.5432 12.3948 40.4156 12.4775 40.3111 12.5853L38.2016 14.531H26.384C26.3705 14.531 26.3571 14.522 26.3414 14.522C26.194 14.522 26.0481 14.551 25.912 14.6074C25.7758 14.6638 25.6521 14.7465 25.548 14.8507C25.4438 14.9549 25.3611 15.0786 25.3047 15.2147C25.2483 15.3508 25.2193 15.4967 25.2193 15.6441V28.007C25.2249 29.7492 25.6377 31.466 26.4247 33.0203C27.2118 34.5746 28.3514 35.9233 29.7525 36.9589C29.7281 37.0347 29.7123 37.1129 29.7053 37.1923L29.7098 42.8003C29.686 43.5658 29.4133 44.3027 28.933 44.8992C28.4527 45.4957 27.791 45.9194 27.0483 46.1059C27.0158 46.1252 26.9843 46.1462 26.954 46.1688C25.6008 46.6917 24.2588 47.2527 22.9752 47.807V16.7572V16.7594ZM27.4634 16.7751H38.6392C38.9207 16.7754 39.1919 16.6687 39.3977 16.4767L40.9933 15.0068L42.2411 16.3981C42.3461 16.5164 42.475 16.6112 42.6193 16.6761C42.7635 16.7411 42.9199 16.7749 43.0781 16.7751H45.4165V28.007C45.4165 30.3877 44.4708 32.671 42.7873 34.3544C41.1039 36.0378 38.8207 36.9835 36.44 36.9835C34.0592 36.9835 31.776 36.0378 30.0926 34.3544C28.4092 32.671 27.4634 30.3877 27.4634 28.007V16.7751ZM31.9517 38.2739C33.3626 38.9001 34.8887 39.2243 36.4323 39.2259C37.9758 39.2274 39.5027 38.9062 40.9148 38.2829L40.9103 42.8003C40.9186 43.8719 41.2371 44.9182 41.8273 45.8127C42.4175 46.7071 43.2541 47.4115 44.2361 47.8407C44.0512 49.7797 43.1499 51.5801 41.7083 52.8899C40.2666 54.1997 38.3883 54.9248 36.4405 54.9234C34.4927 54.922 32.6154 54.1942 31.1756 52.8823C29.7359 51.5704 28.8371 49.7687 28.6551 47.8294C29.6304 47.3979 30.4605 46.6941 31.0457 45.8024C31.6308 44.9107 31.9462 43.8691 31.9539 42.8026L31.9517 38.2739ZM61.1254 70.6231H11.7545V58.2804C11.7545 55.363 13.9807 54.196 16.8891 52.973C17.219 52.8339 17.5332 52.7037 17.8249 52.5713L19.0861 51.999C20.9846 51.1328 23.7225 49.8918 26.5276 48.7608C26.9163 51.1087 28.1259 53.2424 29.941 54.7815C31.7562 56.3207 34.0588 57.1655 36.4387 57.1652C38.8185 57.1649 41.121 56.3197 42.9358 54.7801C44.7505 53.2405 45.9597 51.1065 46.3478 48.7585C48.8536 49.7833 51.3362 50.8638 53.7938 51.999L55.0551 52.5713C55.3468 52.7037 55.661 52.8339 55.9909 52.973C58.8993 54.1938 61.1254 55.3607 61.1254 58.2781V70.6209V70.6231Z"/>
</mask>
<path d="M56.8593 50.9039C56.5474 50.7715 56.2534 50.6481 55.9751 50.5224L54.7274 49.9569L52.1489 48.7899V16.7617C52.1489 12.5954 50.4939 8.59977 47.5479 5.65377C44.6019 2.70778 40.6062 1.05273 36.44 1.05273C32.2737 1.05273 28.2781 2.70778 25.3321 5.65377C22.3861 8.59977 20.731 12.5954 20.731 16.7617V48.7944C19.784 49.2163 18.8909 49.6225 18.1503 49.9591L16.9048 50.5269C16.6288 50.6503 16.3325 50.7737 16.0206 50.9061C13.4286 51.9923 9.51038 53.6395 9.51038 58.2781V71.7429C9.51038 71.8903 9.5394 72.0362 9.59579 72.1723C9.65218 72.3085 9.73483 72.4322 9.83902 72.5363C9.94322 72.6405 10.0669 72.7232 10.203 72.7796C10.3392 72.836 10.4851 72.865 10.6324 72.865H62.2475C62.5451 72.865 62.8305 72.7468 63.0409 72.5363C63.2513 72.3259 63.3696 72.0405 63.3696 71.7429V58.2781C63.3696 53.6373 59.4513 51.9901 56.8593 50.9017V50.9039ZM22.9752 16.7594C22.9752 14.9912 23.3235 13.2403 24.0001 11.6067C24.6768 9.97304 25.6686 8.48869 26.9189 7.23837C28.1692 5.98805 29.6536 4.99624 31.2872 4.31957C32.9208 3.6429 34.6717 3.29462 36.44 3.29462C38.2082 3.29462 39.9591 3.6429 41.5927 4.31957C43.2263 4.99624 44.7107 5.98805 45.961 7.23837C47.2113 8.48869 48.2031 9.97304 48.8798 11.6067C49.5565 13.2403 49.9048 14.9912 49.9048 16.7594V47.807C48.5765 47.2308 47.2372 46.6801 45.8878 46.1553C45.8608 46.1419 45.8429 46.1194 45.8182 46.1104C45.0747 45.9242 44.4122 45.5004 43.9314 44.9033C43.4507 44.3063 43.1778 43.5687 43.1544 42.8026L43.1589 37.1923C43.1517 37.1176 43.1367 37.0439 43.114 36.9723C44.5194 35.9369 45.6627 34.5866 46.4522 33.0297C47.2418 31.4728 47.6556 29.7526 47.6606 28.007V15.6441C47.6606 15.3465 47.5424 15.0611 47.332 14.8507C47.1216 14.6402 46.8362 14.522 46.5386 14.522C46.5229 14.522 46.5094 14.531 46.4937 14.531H43.5808L41.9067 12.6616C41.808 12.5506 41.688 12.4604 41.5539 12.3964C41.4198 12.3324 41.2742 12.2959 41.1257 12.2891C40.9764 12.2736 40.8255 12.2922 40.6843 12.3435C40.5432 12.3948 40.4156 12.4775 40.3111 12.5853L38.2016 14.531H26.384C26.3705 14.531 26.3571 14.522 26.3414 14.522C26.194 14.522 26.0481 14.551 25.912 14.6074C25.7758 14.6638 25.6521 14.7465 25.548 14.8507C25.4438 14.9549 25.3611 15.0786 25.3047 15.2147C25.2483 15.3508 25.2193 15.4967 25.2193 15.6441V28.007C25.2249 29.7492 25.6377 31.466 26.4247 33.0203C27.2118 34.5746 28.3514 35.9233 29.7525 36.9589C29.7281 37.0347 29.7123 37.1129 29.7053 37.1923L29.7098 42.8003C29.686 43.5658 29.4133 44.3027 28.933 44.8992C28.4527 45.4957 27.791 45.9194 27.0483 46.1059C27.0158 46.1252 26.9843 46.1462 26.954 46.1688C25.6008 46.6917 24.2588 47.2527 22.9752 47.807V16.7572V16.7594ZM27.4634 16.7751H38.6392C38.9207 16.7754 39.1919 16.6687 39.3977 16.4767L40.9933 15.0068L42.2411 16.3981C42.3461 16.5164 42.475 16.6112 42.6193 16.6761C42.7635 16.7411 42.9199 16.7749 43.0781 16.7751H45.4165V28.007C45.4165 30.3877 44.4708 32.671 42.7873 34.3544C41.1039 36.0378 38.8207 36.9835 36.44 36.9835C34.0592 36.9835 31.776 36.0378 30.0926 34.3544C28.4092 32.671 27.4634 30.3877 27.4634 28.007V16.7751ZM31.9517 38.2739C33.3626 38.9001 34.8887 39.2243 36.4323 39.2259C37.9758 39.2274 39.5027 38.9062 40.9148 38.2829L40.9103 42.8003C40.9186 43.8719 41.2371 44.9182 41.8273 45.8127C42.4175 46.7071 43.2541 47.4115 44.2361 47.8407C44.0512 49.7797 43.1499 51.5801 41.7083 52.8899C40.2666 54.1997 38.3883 54.9248 36.4405 54.9234C34.4927 54.922 32.6154 54.1942 31.1756 52.8823C29.7359 51.5704 28.8371 49.7687 28.6551 47.8294C29.6304 47.3979 30.4605 46.6941 31.0457 45.8024C31.6308 44.9107 31.9462 43.8691 31.9539 42.8026L31.9517 38.2739ZM61.1254 70.6231H11.7545V58.2804C11.7545 55.363 13.9807 54.196 16.8891 52.973C17.219 52.8339 17.5332 52.7037 17.8249 52.5713L19.0861 51.999C20.9846 51.1328 23.7225 49.8918 26.5276 48.7608C26.9163 51.1087 28.1259 53.2424 29.941 54.7815C31.7562 56.3207 34.0588 57.1655 36.4387 57.1652C38.8185 57.1649 41.121 56.3197 42.9358 54.7801C44.7505 53.2405 45.9597 51.1065 46.3478 48.7585C48.8536 49.7833 51.3362 50.8638 53.7938 51.999L55.0551 52.5713C55.3468 52.7037 55.661 52.8339 55.9909 52.973C58.8993 54.1938 61.1254 55.3607 61.1254 58.2781V70.6209V70.6231Z" stroke="white" stroke-width="4" mask="url(#path-1-inside-1_18814_73)"/>
</g>
<defs>
<clipPath id="clip0_18814_73">
<rect width="72" height="72" fill="white" transform="translate(0.439941 0.86499)"/>
</clipPath>
</defs>
</svg>
