<svg width="69" height="68" viewBox="0 0 69 68" fill="none" xmlns="http://www.w3.org/2000/svg">
<circle cx="34.5" cy="34" r="29" fill="#1AD598" stroke="#D1F7EA" stroke-width="10"/>
<path d="M43.751 23.9361C44.1973 23.9361 44.6252 24.1134 44.9414 24.4283H44.9424L47.5674 27.0054C47.7252 27.1619 47.8509 27.3482 47.9365 27.5533C48.0222 27.7585 48.0661 27.9793 48.0664 28.2017C48.0666 28.4241 48.0227 28.6447 47.9375 28.8502C47.8736 29.0042 47.7873 29.1476 47.6816 29.2759L47.5703 29.399L33.5254 43.4429C33.3687 43.5997 33.1823 43.7243 32.9775 43.8091C32.7729 43.8939 32.5535 43.937 32.332 43.9371C32.1104 43.9371 31.8903 43.894 31.6855 43.8091C31.4809 43.7244 31.2953 43.5995 31.1387 43.4429L23.3047 35.5679C22.9888 35.2515 22.8115 34.8226 22.8115 34.3755C22.8115 33.9285 22.9888 33.4996 23.3047 33.1832L25.9297 30.5582C26.2451 30.2427 26.6731 30.0652 27.1191 30.064C27.5094 30.0631 27.8861 30.1972 28.1865 30.441L28.3105 30.5523L32.3174 34.4088V34.4097L32.373 34.4654L32.418 34.4214L42.5596 24.4283H42.5605C42.8768 24.1133 43.3046 23.9361 43.751 23.9361Z" fill="white" stroke="white" stroke-width="0.125"/>
</svg>
