<svg width="764" height="591" viewBox="0 0 764 591" fill="none" xmlns="http://www.w3.org/2000/svg">
<g clip-path="url(#clip0_18233_14879)">
<path d="M0 213.931C0 154.893 47.8594 107.034 106.897 107.034H240.241C263.856 107.034 283 126.178 283 149.793V759.275C283 782.89 263.856 802.034 240.241 802.034H42.7587C19.1437 802.034 0 782.89 0 759.275V213.931Z" fill="#2DD4BF"/>
<path d="M96.058 314.034V300.466L128.058 272.434C131.471 269.362 134.159 266.546 136.122 263.986C138.17 261.341 139.621 258.738 140.474 256.178C141.413 253.618 141.882 250.973 141.882 248.242C141.882 243.207 140.346 239.239 137.274 236.338C134.287 233.351 130.021 231.858 124.474 231.858C119.098 231.858 114.661 233.394 111.162 236.466C107.663 239.453 105.317 243.805 104.122 249.522L93.498 247.602C94.266 242.311 96.0153 237.746 98.746 233.906C101.477 229.981 105.018 226.994 109.37 224.946C113.807 222.813 118.927 221.746 124.73 221.746C130.789 221.746 135.951 222.77 140.218 224.818C144.57 226.866 147.898 229.853 150.202 233.778C152.506 237.618 153.658 242.269 153.658 247.73C153.658 251.399 153.018 254.983 151.738 258.482C150.458 261.981 148.453 265.522 145.722 269.106C143.077 272.605 139.621 276.189 135.354 279.858L107.706 303.538H158.01V314.034H96.058Z" fill="white"/>
<path d="M481 218.793C481 195.178 500.144 176.034 523.759 176.034H657.103C716.141 176.034 764 223.893 764 282.931V759.275C764 782.89 744.856 802.034 721.241 802.034H523.759C500.144 802.034 481 782.89 481 759.275V218.793Z" fill="#38BDF8"/>
<path d="M638.007 385.21C629.559 385.21 622.434 383.205 616.631 379.194C610.828 375.183 606.732 369.338 604.343 361.658L614.967 357.946C616.759 363.749 619.618 368.058 623.543 370.874C627.554 373.69 632.503 375.098 638.391 375.098C644.791 375.098 649.655 373.349 652.983 369.85C656.396 366.351 658.103 361.957 658.103 356.666C658.103 350.693 656.012 346.255 651.831 343.354C647.735 340.453 642.188 339.002 635.191 339.002H629.047V331.578H646.071V332.986C653.495 333.754 659.255 336.399 663.351 340.922C667.532 345.359 669.623 350.949 669.623 357.69C669.623 362.981 668.3 367.717 665.655 371.898C663.01 376.079 659.34 379.365 654.647 381.754C649.954 384.058 644.407 385.21 638.007 385.21ZM629.047 335.162V329.402H635.447C641.506 329.402 646.199 328.037 649.527 325.306C652.94 322.575 654.647 318.906 654.647 314.298C654.647 310.287 653.324 307.045 650.679 304.57C648.119 302.01 643.938 300.73 638.135 300.73C633.527 300.73 629.474 301.754 625.975 303.802C622.476 305.85 619.959 309.007 618.423 313.274L607.927 309.69C609.463 305.509 611.639 302.01 614.455 299.194C617.356 296.293 620.727 294.159 624.567 292.794C628.492 291.343 632.844 290.618 637.623 290.618C643.682 290.618 648.802 291.557 652.983 293.434C657.164 295.311 660.322 297.914 662.455 301.242C664.588 304.57 665.655 308.453 665.655 312.89C665.655 317.242 664.546 321.125 662.327 324.538C660.108 327.866 657.164 330.469 653.495 332.346C649.911 334.223 645.943 335.162 641.591 335.162H629.047Z" fill="white"/>
<rect x="248.535" width="267.242" height="791.037" rx="42.7587" fill="#777DF5"/>
<rect x="240.518" y="10.6895" width="283.277" height="791.037" rx="42.7587" fill="#BBBEFA"/>
<rect x="248.535" y="37.4138" width="267.242" height="355.432" rx="42.7587" fill="#777DF5"/>
<rect x="248.535" y="398.034" width="267.242" height="184.397" rx="42.7587" fill="#777DF5"/>
<path d="M383.982 217.034V132.682L360.686 158.154V144.586L376.302 126.794H395.246V217.034H383.982Z" fill="white"/>
</g>
<defs>
<clipPath id="clip0_18233_14879">
<rect width="764" height="591" fill="white"/>
</clipPath>
</defs>
</svg>
