<svg width="775" height="576" viewBox="0 0 775 576" fill="none" xmlns="http://www.w3.org/2000/svg">
<path d="M547.932 442.036C483.814 407.881 459.439 327.937 493.594 263.819L521.876 278.885C496.028 327.41 514.476 387.915 563.001 413.764C611.526 439.612 672.031 421.164 697.88 372.639L745.743 282.787L774.025 297.853L726.162 387.705C691.994 451.816 612.05 476.191 547.932 442.036Z" fill="white"/>
<path d="M409.155 368.132L380.872 353.066L411.025 296.461L274.729 223.859C263.264 217.752 256.669 205.455 257.921 192.521C259.176 179.596 268.016 168.793 280.44 165.005L518.951 92.2825C526.402 90.0049 534.427 92.4283 539.372 98.4437C544.324 104.463 545.16 112.795 541.494 119.677L409.148 368.128L409.155 368.132ZM289.89 195.619L426.09 268.179L498.647 131.968L289.89 195.619Z" fill="white"/>
<path d="M359.632 341.706L311.709 431.67L268.645 444.354L313.064 360.968L177.332 401.52L135.047 265.55L28.2827 465.977L0.000194477 450.911L124.805 216.618L159.06 234.865L198.515 361.753L325.838 323.705L359.632 341.706Z" fill="white"/>
</svg>
