<svg width="692" height="391" viewBox="0 0 692 391" fill="none" xmlns="http://www.w3.org/2000/svg">
<g opacity="0.25">
<path d="M496.161 463.706C442.808 432.902 424.464 364.442 455.267 311.089L478.801 324.676C455.489 365.054 469.373 416.868 509.75 440.18C550.128 463.492 601.942 449.609 625.254 409.231L668.421 334.465L691.955 348.052L648.788 422.818C617.974 476.165 549.514 494.509 496.161 463.706Z" fill="white"/>
<path d="M484.901 313.491L461.367 299.904L488.561 252.803L375.148 187.324C365.609 181.816 360.375 171.204 361.811 160.278C363.248 149.36 371.053 140.46 381.693 137.609L585.942 82.8805C592.324 81.1659 599.055 83.4521 603.072 88.6935C607.094 93.9381 607.562 101.024 604.256 106.75L484.896 313.488L484.901 313.491ZM388.816 163.829L502.148 229.269L567.586 115.928L388.816 163.829Z" fill="white"/>
<path d="M441.815 304.304L379.809 411.702L326.92 425.335L384.392 325.79L217.67 369.46L171.904 202.376L33.7631 441.643L-0.000149325 422.15L161.482 142.454L202.376 166.063L245.079 321.987L401.472 281.012L441.815 304.304Z" fill="white"/>
</g>
</svg>
