<svg width="82" height="80" viewBox="0 0 82 80" fill="none" xmlns="http://www.w3.org/2000/svg">
<path d="M58.9341 80C47.2407 80 37.7282 70.5497 37.7282 58.9327H42.8862C42.8862 67.7245 50.0857 74.8769 58.9353 74.8769C67.785 74.8769 74.9845 67.7245 74.9845 58.9327V42.6533H80.1425V58.9327C80.1401 70.5497 70.6276 80 58.9341 80Z" fill="#111827"/>
<path d="M53.7558 64.1667H48.5978V53.9111H23.7411C21.6502 53.9111 19.7828 52.6715 18.9818 50.7519C18.182 48.8334 18.6203 46.6441 20.0986 45.1755L48.4789 16.9809C49.3652 16.0992 50.6886 15.8379 51.8463 16.3151C53.0052 16.7924 53.7546 17.9055 53.7546 19.1523V64.1667H53.7558ZM23.7579 48.7857L48.5978 48.7869V24.1083L23.7579 48.7857Z" fill="#111827"/>
<path d="M42.8862 0.367432V16.6671L37.7282 21.6947V6.5869L21.5145 22.5144L5.21797 6.50338V42.8168H0.0599976V0.367432H6.30721L21.5145 15.3094L36.723 0.367432H42.8862Z" fill="#111827"/>
<path d="M56.7977 27.0934H58.0755L60.4017 30.9565L62.7279 27.0934H64.0165L60.9529 31.8919V35.1311H59.8577V31.8919L56.7977 27.0934Z" fill="#111827"/>
<path d="M71.6087 28.2423C72.1443 28.9533 72.4133 29.8636 72.4133 30.972C72.4133 32.1722 72.1071 33.1696 71.4934 33.9654C70.7741 34.8996 69.7473 35.3661 68.4143 35.3661C67.1701 35.3661 66.1913 34.958 65.4792 34.1408C64.8439 33.3534 64.5269 32.3572 64.5269 31.1533C64.5269 30.0665 64.7983 29.1359 65.3423 28.3628C66.04 27.3701 67.0716 26.875 68.4371 26.875C69.865 26.8738 70.9218 27.3296 71.6087 28.2423ZM70.642 33.3653C71.0731 32.6769 71.2893 31.8859 71.2893 30.9911C71.2893 30.045 71.0407 29.285 70.5435 28.7076C70.0463 28.1313 69.3654 27.8426 68.5031 27.8426C67.6661 27.8426 66.9827 28.1289 66.4543 28.6992C65.9259 29.2707 65.6617 30.113 65.6617 31.2261C65.6617 32.1173 65.8887 32.8678 66.3415 33.4798C66.7942 34.0919 67.5304 34.3973 68.5463 34.3973C69.5119 34.3973 70.2108 34.0525 70.642 33.3653Z" fill="#111827"/>
<path d="M74.9017 27.0934V32.0613C74.9017 32.6447 75.0134 33.1303 75.2343 33.5169C75.5634 34.1003 76.1194 34.3926 76.9 34.3926C77.8367 34.3926 78.4732 34.0776 78.8095 33.4465C78.9908 33.1041 79.0809 32.6423 79.0809 32.0625V27.0946H80.1882V31.608C80.1882 32.597 80.0537 33.357 79.7846 33.8891C79.2911 34.8591 78.3592 35.3446 76.9889 35.3446C75.6186 35.3446 74.6879 34.8591 74.1979 33.8891C73.9289 33.357 73.7944 32.5958 73.7944 31.608V27.0946H74.9017V27.0934Z" fill="#111827"/>
<path d="M58.1595 13.6464H63.7715V14.6306H59.256V17.0705H63.2263V18.0285H59.256V21.6829H58.1595V13.6464Z" fill="#111827"/>
<path d="M71.6087 14.7952C72.1443 15.5063 72.4133 16.4166 72.4133 17.525C72.4133 18.7252 72.1071 19.7226 71.4934 20.5184C70.7741 21.4526 69.7473 21.919 68.4143 21.919C67.1701 21.919 66.1913 21.511 65.4792 20.6938C64.8439 19.9063 64.5269 18.9101 64.5269 17.7063C64.5269 16.6194 64.7983 15.6888 65.3423 14.9157C66.04 13.9231 67.0716 13.428 68.4371 13.428C69.865 13.428 70.9218 13.8837 71.6087 14.7952ZM70.642 19.9183C71.0731 19.2299 71.2893 18.4389 71.2893 17.5441C71.2893 16.598 71.0407 15.838 70.5435 15.2605C70.0463 14.6843 69.3654 14.3956 68.5031 14.3956C67.6661 14.3956 66.9827 14.6819 66.4543 15.2522C65.9259 15.8237 65.6617 16.666 65.6617 17.7791C65.6617 18.6703 65.8887 19.4208 66.3415 20.0328C66.7942 20.6448 67.5304 20.9503 68.5463 20.9503C69.5119 20.9503 70.2108 20.6067 70.642 19.9183Z" fill="#111827"/>
<path d="M73.8496 13.6464H77.5268C78.1321 13.6464 78.6317 13.7358 79.0244 13.9148C79.7702 14.2572 80.1437 14.8907 80.1437 15.813C80.1437 16.295 80.044 16.6887 79.8434 16.9953C79.6429 17.3019 79.3631 17.5477 79.004 17.7338C79.3198 17.8615 79.5576 18.0297 79.7173 18.2373C79.8771 18.4449 79.9659 18.7825 79.9839 19.249L80.0224 20.3264C80.0332 20.633 80.0584 20.8608 80.0992 21.01C80.1653 21.2653 80.283 21.4299 80.4523 21.5027V21.6829H79.1097C79.0724 21.6137 79.0436 21.5242 79.022 21.4144C79.0004 21.3047 78.9812 21.0935 78.9667 20.7797L78.9007 19.4387C78.8755 18.9138 78.6845 18.5618 78.3279 18.3828C78.1249 18.2838 77.8055 18.2349 77.3695 18.2349H74.9461V21.6817H73.8496V13.6464ZM77.4092 17.3282C77.9087 17.3282 78.3038 17.2256 78.5957 17.0216C78.8863 16.8175 79.0328 16.4489 79.0328 15.9168C79.0328 15.3441 78.8286 14.954 78.4215 14.7464C78.2042 14.6366 77.9123 14.5817 77.5485 14.5817H74.9461V17.3282H77.4092Z" fill="#111827"/>
<path d="M49.8708 0.200439H51.4404L53.7666 6.99616L56.076 0.200439H57.6348V8.23814H56.5888V3.4945C56.5888 3.33105 56.5924 3.05903 56.5996 2.67964C56.6068 2.30024 56.6104 1.8934 56.6104 1.45913L54.301 8.23814H53.2154L50.8832 1.45913V1.7049C50.8832 1.90176 50.8892 2.20241 50.9 2.60447C50.9108 3.00773 50.9168 3.30361 50.9168 3.49331V8.23695H49.8708V0.200439Z" fill="#111827"/>
<path d="M61.6459 0.200439H62.8852L65.8215 8.23814H64.6205L63.8003 5.83053H60.601L59.7256 8.23814H58.6015L61.6459 0.200439ZM63.4472 4.94408L62.2187 1.39351L60.9133 4.94408H63.4472Z" fill="#111827"/>
<path d="M67.5328 5.64441C67.558 6.10016 67.6613 6.4712 67.8462 6.75515C68.1969 7.28846 68.813 7.55451 69.698 7.55451C70.0944 7.55451 70.4546 7.49605 70.7801 7.37913C71.4094 7.15245 71.724 6.748 71.724 6.16459C71.724 5.72673 71.5907 5.41534 71.3241 5.22922C71.0539 5.04668 70.63 4.888 70.0547 4.75319L68.9931 4.50741C68.3002 4.34754 67.809 4.16978 67.5208 3.9765C67.0224 3.64125 66.7738 3.13896 66.7738 2.47204C66.7738 1.75023 67.0188 1.15728 67.5076 0.694365C67.9975 0.231454 68.6905 0 69.5876 0C70.4126 0 71.1139 0.204015 71.6904 0.609658C72.2668 1.01649 72.5562 1.66672 72.5562 2.56032H71.5259C71.473 2.12963 71.3601 1.80034 71.1884 1.57008C70.8677 1.15131 70.3237 0.941331 69.5563 0.941331C68.9367 0.941331 68.4911 1.07615 68.2209 1.34578C67.9495 1.61541 67.8138 1.92919 67.8138 2.28711C67.8138 2.68083 67.9735 2.96955 68.2942 3.15209C68.5043 3.26901 68.9787 3.41456 69.7185 3.58994L70.8173 3.84765C71.3469 3.97173 71.7564 4.14114 72.0447 4.35589C72.543 4.73171 72.7916 5.27694 72.7916 5.99159C72.7916 6.88162 72.4746 7.51753 71.8381 7.9005C71.2028 8.28348 70.4642 8.47556 69.6224 8.47556C68.6412 8.47556 67.8738 8.22024 67.319 7.70961C66.7642 7.20256 66.4916 6.51535 66.5024 5.64679H67.5328V5.64441Z" fill="#111827"/>
<path d="M74.3396 0.200439H75.4084V4.13399L79.4555 0.200439H80.9879L77.5317 3.44439L81.06 8.23814H79.6261L76.727 4.19961L75.4084 5.43682V8.23814H74.3396V0.200439Z" fill="#111827"/>
</svg>
