<svg width="23" height="19" viewBox="0 0 23 19" fill="none" xmlns="http://www.w3.org/2000/svg">
<path d="M22.2864 6.1211C22.3164 5.8311 22.3364 5.5411 22.3364 5.2411C22.2164 -2.3389 13.7464 1.4311 12.4664 6.4511C11.3264 4.5911 8.99643 1.9311 6.76643 0.691096C6.71643 0.611096 6.66643 0.521096 6.61643 0.441096C6.47643 0.201096 6.16643 0.181096 5.95643 0.301096C5.32643 0.0510956 4.70643 -0.0589044 4.14643 0.0310956C3.08643 0.201096 2.22643 1.0911 1.77643 3.0511C0.986427 6.4811 3.63643 9.9611 6.86643 12.8811C6.67643 12.7711 6.48643 12.6711 6.29643 12.5511C3.56643 10.8011 1.83643 8.3011 0.786427 5.2611C0.616427 4.7611 -0.0735724 4.9711 0.00642756 5.4711C0.506428 8.6411 2.42643 11.4811 4.97643 13.4011C6.39643 14.4611 8.62643 15.6911 10.7164 15.9811C12.1264 17.0111 13.4364 17.8911 14.4064 18.5611C14.5164 18.6311 18.9264 12.7511 19.1264 12.4911C19.8964 11.5211 20.6364 10.4711 21.2064 9.3611C21.0564 10.2011 20.8364 11.0311 20.5164 11.8511C19.6464 14.0511 17.8164 15.3111 16.7064 17.2811C16.5064 17.6211 16.8364 18.0011 17.1964 17.9211C19.3964 17.4411 20.9364 14.8411 21.7464 12.9111C22.6864 10.7311 22.9264 8.3711 22.2864 6.1211Z" fill="#FF8092"/>
</svg>
