<svg width="26" height="23" viewBox="0 0 26 23" fill="none" xmlns="http://www.w3.org/2000/svg">
<path d="M24.9801 9.10979C24.9501 8.75979 24.6801 8.58979 24.4101 8.58979C24.4001 6.77979 24.1001 5.00979 23.2201 3.44979C22.2301 1.68979 21.1301 0.759788 20.0301 0.439788C19.0601 -0.680212 16.6701 0.57979 15.6801 1.19979C14.2501 2.08979 12.6801 3.59979 12.6201 5.37979C12.6101 5.68979 13.0101 5.83979 13.2201 5.62979C13.5501 5.29979 13.8501 4.96979 14.1401 4.62979C13.3601 6.42979 13.0501 8.51979 13.5101 10.3598C10.3201 8.50979 3.69008 6.31979 1.09008 8.33979C0.0800769 9.12979 -0.329923 10.5498 0.320077 12.8798C0.580077 13.8198 1.04008 14.6598 1.65008 15.4098C1.64008 15.4798 1.64008 15.5498 1.70008 15.6298C3.69008 18.1198 7.20008 19.5798 10.1501 20.5598C12.8501 21.4598 16.5301 22.4398 19.4101 21.6798C20.0001 21.7498 20.5501 21.8098 21.0701 21.8598C21.0601 21.9098 21.0501 21.9598 21.0401 22.0098C20.9701 22.4498 21.4601 22.8098 21.8201 22.4598C21.9701 22.3098 22.1201 22.1498 22.2601 21.9798C22.3401 21.9898 22.4201 21.9998 22.5001 22.0098C22.5201 22.0098 22.5701 21.8198 22.6301 21.5098C24.9901 18.2398 25.2601 12.8098 24.9801 9.10979Z" fill="#FF8092"/>
</svg>
