<svg width="991" height="543" viewBox="0 0 991 543" fill="none" xmlns="http://www.w3.org/2000/svg">
<g clip-path="url(#clip0_19052_24365)">
<path d="M959.826 0.0107422C977.117 0.448962 991 14.6031 991 32V374C991 374.335 990.993 374.668 990.982 375H991V511C991 528.673 976.673 543 959 543H822V542.679H32L31.1738 542.668C13.8825 542.23 0 528.076 0 510.679V32C1.62902e-06 14.6031 13.8825 0.44895 31.1738 0.0107422L32 0H959L959.826 0.0107422ZM32 14.3135C22.232 14.3135 14.3135 22.232 14.3135 32V510.679C14.3135 520.447 22.232 528.365 32 528.365H822C831.768 528.365 839.687 520.447 839.687 510.679V438C839.687 412.422 860.422 391.687 886 391.687H959C968.768 391.687 976.687 383.768 976.687 374V32C976.687 22.232 968.768 14.3135 959 14.3135H32Z" fill="#FFC4E3"/>
</g>
<defs>
<clipPath id="clip0_19052_24365">
<rect width="991" height="542.679" rx="32" fill="white"/>
</clipPath>
</defs>
</svg>
